#!OML:ASF \\sashay\E\Suitcase\Project 1\Capture day 1\Session 1\Male1.ASF
:FULLY-SPECIFIED
:DEGREES
627
root 1.26112 17.2859 -6.76805 8.4486 -2.48213 1.53906
lowerback 4.36685 1.93509 -2.01635
upperback 1.02411 2.49487 0.590123
thorax -1.50636 1.25264 1.59391
lowerneck -15.6798 1.02107 -1.43941
upperneck 26.5059 4.89095 -10.2751
head 11.5288 0.802571 -2.83669
rclavicle 1.47101e-014 0
rhumerus -51.1177 -31.4396 -52.26
rradius 8.17834
rwrist 5.01398
rhand -17.2244 10.8553
rfingers 7.12502
rthumb 9.01885 -18.9319
lclavicle 1.47101e-014 0
lhumerus -40.4771 6.26904 74.6047
lradius 28.618
lwrist -6.39834
lhand 0.89222 42.7828
lfingers 7.12502
lthumb 26.4447 70.958
rfemur -7.31754 -2.47844 19.6634
rtibia 56.0724
rfoot 7.93441 -4.42703
rtoes 11.8017
lfemur -26.1553 -2.94017 -26.9856
ltibia 25.1154
lfoot -17.276 -4.67815
ltoes -10.5272
628
root 1.26909 17.2883 -6.6451 8.10513 -2.31667 2.27565
lowerback 4.23975 1.90102 -2.76782
upperback 1.24004 2.41812 0.354826
thorax -1.23069 1.21071 1.78621
lowerneck -15.5572 1.04159 -1.0456
upperneck 25.9891 4.81454 -10.523
head 11.3147 0.802149 -2.99092
rclavicle -8.44835e-015 -5.96354e-015
rhumerus -50.453 -32.0169 -52.6493
rradius 7.954
rwrist 4.96395
rhand -18.2697 10.9583
rfingers 7.12502
rthumb 8.01007 -18.8699
lclavicle -8.44835e-015 -5.96354e-015
lhumerus -39.6806 4.81587 75.3967
lradius 29.6923
lwrist -4.72615
lhand 0.338726 44.1645
lfingers 7.12502
lthumb 25.9148 72.4182
rfemur -8.26756 -2.73748 18.9002
rtibia 58.2623
rfoot 6.9354 -4.14
rtoes 13.5724
lfemur -24.9091 -2.57388 -27.9405
ltibia 24.3584
lfoot -17.3803 -5.68039
ltoes -9.6033
629
root 1.27267 17.2852 -6.55559 7.90355 -2.11771 2.29091
lowerback 4.52223 1.85656 -2.80554
upperback 1.08827 2.34609 0.315249
thorax -1.54054 1.18048 1.75832
lowerneck -15.5327 1.04554 -1.19653
upperneck 26.1578 4.79857 -10.2366
head 11.3602 0.808457 -2.86561
rclavicle -6.75868e-015 -3.57812e-015
rhumerus -50.1777 -32.0494 -52.6821
rradius 7.91184
rwrist 5.25099
rhand -17.9266 11.0371
rfingers 7.12502
rthumb 8.34121 -18.7782
lclavicle -6.75868e-015 -3.57812e-015
lhumerus -39.4096 4.04894 75.6505
lradius 30.5744
lwrist -3.93775
lhand 0.0924739 43.4303
lfingers 7.12502
lthumb 25.6789 71.7183
rfemur -9.4716 -2.76305 19.0538
rtibia 60.1873
rfoot 5.68107 -4.11941
rtoes 14.357
lfemur -24.2432 -2.16409 -28.0498
ltibia 23.8146
lfoot -17.2913 -6.73019
ltoes -8.93772
630
root 1.28258 17.2765 -6.45826 7.59738 -1.90213 2.72272
lowerback 4.69998 1.79872 -3.29125
upperback 1.00091 2.23624 0.185903
thorax -1.73715 1.1312 1.89674
lowerneck -15.527 1.10667 -1.49285
upperneck 26.2759 4.90234 -9.95431
head 11.3958 0.855318 -2.69793
rclavicle 2.74323e-014 -6.36111e-015
rhumerus -49.9685 -32.13 -52.7485
rradius 7.96959
rwrist 5.49064
rhand -18.0205 10.8146
rfingers 7.12502
rthumb 8.25054 -19.0042
lclavicle 2.74323e-014 -6.36111e-015
lhumerus -39.1595 2.99613 76.1403
lradius 31.6365
lwrist -2.78434
lhand -0.168595 43.0325
lfingers 7.12502
lthumb 25.4289 71.3563
rfemur -10.6327 -3.00648 18.6269
rtibia 61.9819
rfoot 3.54805 -4.06109
rtoes 10.3589
lfemur -23.4784 -1.88704 -28.6481
ltibia 23.4414
lfoot -17.327 -7.5663
ltoes -9.08765
631
root 1.28292 17.2943 -6.35268 7.24428 -1.5294 3.11549
lowerback 4.59309 1.71139 -3.77479
upperback 1.33582 2.10631 0.128042
thorax -1.34004 1.05687 2.12579
lowerneck -15.8411 1.02131 -1.27328
upperneck 25.9171 4.76815 -10.2111
head 11.3272 0.79036 -2.84057
rclavicle 1.05356e-014 -3.97569e-016
rhumerus -49.1937 -32.6477 -53.073
rradius 8.34876
rwrist 5.44444
rhand -18.2315 10.9319
rfingers 7.12502
rthumb 8.04691 -18.8949
lclavicle 1.05356e-014 -3.97569e-016
lhumerus -38.1403 2.15953 76.7087
lradius 32.4216
lwrist -2.01774
lhand -1.59129 42.9538
lfingers 7.12502
lthumb 24.0653 71.4648
rfemur -11.3889 -3.22279 18.3878
rtibia 63.4308
rfoot 2.37231 -4.46839
rtoes 7.79703
lfemur -22.2928 -2.13569 -28.9198
ltibia 23.0452
lfoot -17.0856 -8.82138
ltoes -4.30994
632
root 1.29425 17.3153 -6.25496 7.00094 -1.05017 3.43584
lowerback 4.95409 1.58763 -4.00987
upperback 0.998116 1.9048 0.0107816
thorax -1.87986 0.971561 2.13395
lowerneck -14.803 0.902759 -1.68118
upperneck 25.4919 4.50543 -9.85218
head 10.9237 0.722253 -2.65881
rclavicle -1.27222e-014 -1.59028e-015
rhumerus -49.3825 -32.4804 -52.8428
rradius 8.10053
rwrist 5.46035
rhand -17.9262 12.2653
rfingers 7.12502
rthumb 8.34156 -17.55
lclavicle -1.27222e-014 -1.59028e-015
lhumerus -38.0437 1.16006 77.0346
lradius 33.1998
lwrist -1.32135
lhand -1.71774 42.3283
lfingers 7.12502
lthumb 23.9441 70.8553
rfemur -12.3661 -3.65185 18.0907
rtibia 64.6969
rfoot 0.789973 -4.57383
rtoes 8.01652
lfemur -21.1004 -2.47216 -29.1095
ltibia 22.7269
lfoot -16.832 -10.202
ltoes 3.68474
633
root 1.30169 17.2989 -6.15798 6.66174 -0.846021 3.40801
lowerback 4.90188 1.55321 -3.90865
upperback 1.31682 1.87216 -0.0619043
thorax -1.51455 0.943543 2.01133
lowerneck -16.2637 0.941283 -1.81364
upperneck 26.2251 4.64424 -9.44104
head 11.488 0.749891 -2.48895
rclavicle 1.65488e-014 -4.77083e-015
rhumerus -48.1385 -33.2175 -53.4514
rradius 7.75798
rwrist 5.73164
rhand -18.433 12.0276
rfingers 7.12502
rthumb 7.85243 -17.8065
lclavicle 1.65488e-014 -4.77083e-015
lhumerus -36.8169 0.351656 77.2741
lradius 33.7615
lwrist -0.487074
lhand -2.13844 43.7712
lfingers 7.12502
lthumb 23.5406 72.3506
rfemur -13.1484 -3.76756 18.1643
rtibia 65.8457
rfoot -0.382779 -4.82648
rtoes 7.80607
lfemur -20.6178 -1.86886 -29.3785
ltibia 22.4506
lfoot -16.9026 -10.5574
ltoes 0.568381
634
root 1.3052 17.2966 -6.05491 6.43666 -0.499159 3.35505
lowerback 4.93924 1.3732 -3.91759
upperback 1.1949 1.62921 0.00657289
thorax -1.64755 0.826676 2.1002
lowerneck -15.3046 0.992971 -1.89713
upperneck 25.5401 4.65907 -9.60987
head 11.0396 0.782684 -2.51394
rclavicle -6.4605e-015 -5.1684e-015
rhumerus -47.5359 -33.0562 -53.6453
rradius 7.60864
rwrist 5.59893
rhand -18.7726 11.21
rfingers 7.12502
rthumb 7.52466 -18.6361
lclavicle -6.4605e-015 -5.1684e-015
lhumerus -36.5348 0.00623802 77.5214
lradius 34.3972
lwrist -0.219683
lhand -2.49565 41.8033
lfingers 7.12502
lthumb 23.1979 70.4263
rfemur -14.0692 -3.83591 18.337
rtibia 66.7808
rfoot -1.21053 -5.38641
rtoes 12.4641
lfemur -19.8885 -1.67388 -29.431
ltibia 22.1995
lfoot -17.0857 -10.9529
ltoes 0.185476
635
root 1.31919 17.3048 -5.956 6.17917 -0.256108 4.02516
lowerback 4.77292 1.35591 -4.6486
upperback 1.32985 1.57981 -0.110796
thorax -1.42791 0.797548 2.39773
lowerneck -15.9312 0.886238 -2.15159
upperneck 25.9671 4.58646 -9.34082
head 11.3116 0.722067 -2.39429
rclavicle 9.44227e-015 -4.37326e-015
rhumerus -46.9916 -33.3968 -53.6755
rradius 7.75913
rwrist 5.64463
rhand -18.701 11.3997
rfingers 7.12502
rthumb 7.59379 -18.444
lclavicle 9.44227e-015 -4.37326e-015
lhumerus -35.4842 -0.337465 77.8485
lradius 34.7995
lwrist -0.219131
lhand -2.74727 42.4472
lfingers 7.12502
lthumb 22.9565 71.1004
rfemur -14.976 -4.02465 17.5369
rtibia 67.6569
rfoot -2.38971 -5.8267
rtoes 13.0701
lfemur -18.84 -1.70367 -30.1868
ltibia 21.7414
lfoot -16.9919 -11.7063
ltoes 3.58116
636
root 1.32349 17.2988 -5.85809 5.86414 -0.00466288 3.65998
lowerback 4.65598 1.39167 -4.29381
upperback 1.47278 1.65506 -0.0429554
thorax -1.21352 0.82796 2.2688
lowerneck -15.8492 0.938346 -1.74742
upperneck 25.883 4.68901 -9.87471
head 11.2932 0.750129 -2.6442
rclavicle -1.57537e-014 5.1684e-015
rhumerus -46.4841 -33.9509 -53.7558
rradius 7.56532
rwrist 6.03672
rhand -18.8393 11.5406
rfingers 7.12502
rthumb 7.46027 -18.3079
lclavicle -1.57537e-014 5.1684e-015
lhumerus -34.4023 -1.23911 78.2097
lradius 35.1432
lwrist 0.148673
lhand -2.79065 43.2005
lfingers 7.12502
lthumb 22.9149 71.8589
rfemur -15.6784 -3.97308 18.015
rtibia 68.3002
rfoot -3.80581 -6.66487
rtoes 11.723
lfemur -18.1669 -1.15938 -29.9661
ltibia 21.5929
lfoot -17.3454 -12.0873
ltoes 2.48539
637
root 1.32647 17.3023 -5.77009 5.66949 0.422961 4.03544
lowerback 4.92761 1.25632 -4.59192
upperback 1.2114 1.43656 -0.226681
thorax -1.62128 0.731994 2.25108
lowerneck -15.1315 0.849831 -1.73338
upperneck 25.6344 4.41589 -9.61834
head 11.0295 0.689312 -2.58115
rclavicle -2.04251e-014 1.27222e-014
rhumerus -46.477 -33.9028 -53.7835
rradius 7.604
rwrist 5.84713
rhand -18.5945 12.3403
rfingers 7.12502
rthumb 7.69652 -17.4997
lclavicle -2.04251e-014 1.27222e-014
lhumerus -34.025 -1.86841 78.2206
lradius 35.4636
lwrist 0.457172
lhand -3.53608 42.4825
lfingers 7.12502
lthumb 22.1994 71.2278
rfemur -16.6164 -4.0868 17.6756
rtibia 68.9043
rfoot -4.71676 -7.41945
rtoes 11.877
lfemur -17.465 -1.49966 -30.3411
ltibia 21.4808
lfoot -17.3822 -12.3938
ltoes 4.13215
638
root 1.33671 17.2939 -5.66917 5.36243 0.551018 3.82326
lowerback 4.8309 1.22891 -4.42868
upperback 1.34322 1.41909 -0.105465
thorax -1.42934 0.716871 2.28924
lowerneck -15.3675 0.839596 -2.15331
upperneck 25.6649 4.482 -9.43089
head 11.0813 0.692741 -2.43253
rclavicle 7.10655e-015 -1.98785e-015
rhumerus -46.0181 -33.9703 -53.7947
rradius 7.94506
rwrist 6.09841
rhand -18.9447 11.6309
rfingers 7.12502
rthumb 7.35856 -18.2211
lclavicle 7.10655e-015 -1.98785e-015
lhumerus -33.1858 -2.28948 78.5418
lradius 35.9863
lwrist 0.471559
lhand -3.24278 43.2738
lfingers 7.12502
lthumb 22.4809 71.9852
rfemur -17.2793 -3.8892 17.8951
rtibia 69.3226
rfoot -6.28843 -8.32072
rtoes 12.3116
lfemur -16.7991 -1.0221 -30.3008
ltibia 21.3963
lfoot -17.9173 -12.457
ltoes 2.37273
639
root 1.34897 17.2873 -5.58335 5.24212 1.10642 4.48211
lowerback 4.84693 1.10715 -4.96799
upperback 1.22714 1.22176 -0.389843
thorax -1.54805 0.624145 2.30936
lowerneck -15.7054 0.868612 -1.59841
upperneck 26.1508 4.54957 -9.80129
head 11.3571 0.704351 -2.67008
rclavicle -6.5102e-015 -8.74653e-015
rhumerus -45.6249 -34.3708 -53.9856
rradius 7.63954
rwrist 5.82501
rhand -18.6587 12.5675
rfingers 7.12502
rthumb 7.63463 -17.2747
lclavicle -6.5102e-015 -8.74653e-015
lhumerus -32.2042 -3.00246 78.6464
lradius 36.0077
lwrist 0.842391
lhand -3.30229 43.4268
lfingers 7.12502
lthumb 22.4238 72.1452
rfemur -18.1204 -4.41337 17.0269
rtibia 69.6936
rfoot -7.47809 -8.65457
rtoes 12.8234
lfemur -16.2105 -1.22874 -31.0961
ltibia 21.5673
lfoot -18.3305 -12.6829
ltoes 2.19297
640
root 1.34881 17.2826 -5.49177 4.96652 1.34881 4.6112
lowerback 4.91382 1.01511 -5.24588
upperback 1.23912 1.08249 -0.34929
thorax -1.5679 0.55584 2.51498
lowerneck -15.8203 0.786012 -1.66421
upperneck 26.1913 4.44989 -9.76658
head 11.3885 0.651593 -2.66198
rclavicle -6.41081e-015 -2.14687e-014
rhumerus -45.0151 -34.4356 -54.1957
rradius 7.6171
rwrist 5.84878
rhand -18.9142 12.1705
rfingers 7.12502
rthumb 7.38794 -17.6805
lclavicle -6.41081e-015 -2.14687e-014
lhumerus -31.4986 -3.306 78.8679
lradius 36.2563
lwrist 0.883245
lhand -3.70502 42.9065
lfingers 7.12502
lthumb 22.0372 71.6709
rfemur -18.9075 -4.19676 16.9246
rtibia 69.9427
rfoot -8.61332 -9.41894
rtoes 15.0989
lfemur -15.6723 -1.18109 -31.3187
ltibia 21.7073
lfoot -18.6454 -12.5076
ltoes 1.67909
641
root 1.35578 17.2791 -5.40269 4.75581 1.70482 4.42983
lowerback 4.99993 0.945052 -4.94261
upperback 1.00214 0.990754 -0.416139
thorax -1.84713 0.519531 2.27878
lowerneck -15.4144 0.825704 -1.29054
upperneck 26.378 4.44548 -9.9188
head 11.3862 0.673399 -2.78785
rclavicle -6.01324e-015 -6.55989e-015
rhumerus -45.4362 -34.3782 -53.9871
rradius 8.13977
rwrist 5.7951
rhand -18.4467 12.621
rfingers 7.12502
rthumb 7.83922 -17.2137
lclavicle -6.01324e-015 -6.55989e-015
lhumerus -31.0984 -4.35937 79.0661
lradius 36.9791
lwrist 1.27459
lhand -3.62564 43.3025
lfingers 7.12502
lthumb 22.1134 72.0579
rfemur -19.6814 -4.08499 17.0584
rtibia 69.9915
rfoot -10.0025 -9.9213
rtoes 13.9749
lfemur -14.9723 -1.26256 -31.1903
ltibia 21.8087
lfoot -19.3442 -12.1697
ltoes -0.740968
